<svg xmlns="http://www.w3.org/2000/svg" xmlns:xlink="http://www.w3.org/1999/xlink" version="1.1" x="0px" y="0px" viewBox="0 0 100 100" enable-background="new 0 0 100 100" xml:space="preserve"><g><path d="M90.458,82.564c-0.79-1.481-1.606-3.012-2.097-5.129c-0.478-2.073-0.212-2.659,0.583-4.398   c0.882-1.931,2.092-4.575,2.092-8.899c0-4.447-0.886-6.883-1.597-8.841c-0.568-1.559-0.978-2.688-0.978-5.319   c0-2.629,0.409-3.756,0.978-5.312c0.711-1.956,1.597-4.389,1.597-8.833c0-4.447-0.886-6.883-1.597-8.838   c-0.568-1.559-0.978-2.685-0.978-5.317c0-1.556,0.605-2.73,1.596-4.518c1.516-2.737,4.339-7.831-0.479-13.71   C87.242,0.598,84.631,0,82.854,0c0,0,0,0-0.003,0c-2.582,0-4.676,1.229-6.357,2.217c-1.325,0.777-2.466,1.448-3.486,1.448   c-1.806,0-2.481-0.299-3.708-0.845c-1.645-0.729-3.895-1.729-7.886-1.729c-3.989,0-6.239,1-7.884,1.732   c-1.223,0.543-1.897,0.842-3.702,0.842c-1.801,0-2.474-0.299-3.696-0.842c-1.643-0.732-3.893-1.732-7.88-1.732   c-3.987,0-6.237,1-7.879,1.732c-1.222,0.543-1.894,0.842-3.695,0.842c-1.014,0-2.157-0.671-3.478-1.445   c-1.682-0.988-3.775-2.217-6.357-2.217c-1.781,0-4.393,0.598-6.726,3.452c-4.809,5.887-1.99,10.98-0.474,13.715   c0.989,1.79,1.597,2.964,1.597,4.525c0,2.637-0.41,3.766-0.978,5.327c-0.711,1.958-1.596,4.394-1.596,8.844   c0,4.447,0.886,6.883,1.597,8.838c0.567,1.562,0.977,2.688,0.977,5.319c0,2.63-0.41,3.756-0.977,5.314   c-0.711,1.956-1.597,4.389-1.597,8.834c0,4.444,0.886,6.88,1.597,8.836c0.567,1.559,0.977,2.685,0.977,5.316   c0,1.559-0.607,2.732-1.597,4.518c-1.516,2.737-4.339,7.83,0.48,13.71c2.335,2.851,4.947,3.449,6.727,3.449   c2.583,0,4.677-1.229,6.358-2.217c1.324-0.777,2.467-1.448,3.485-1.448c1.807,0,2.482,0.299,3.708,0.845   c1.644,0.729,3.896,1.729,7.886,1.729c3.99,0,6.241-1.001,7.884-1.729c1.224-0.546,1.899-0.845,3.703-0.845   c1.801,0,2.474,0.299,3.696,0.842c1.642,0.731,3.892,1.732,7.879,1.732c3.986,0,6.236-1.001,7.881-1.732   c1.222-0.543,1.893-0.842,3.695-0.842c1.013,0,2.156,0.671,3.477,1.448c1.682,0.987,3.775,2.217,6.357,2.217   c1.782,0,4.394-0.601,6.725-3.454C94.625,90.377,92.116,85.676,90.458,82.564z M85.599,93.288c-0.931,1.139-1.825,1.563-2.74,1.563   c-2.683,0-5.516-3.665-9.834-3.665c-5.79,0-5.79,2.574-11.576,2.574c-5.787,0-5.787-2.574-11.575-2.574   c-5.793,0-5.793,2.574-11.586,2.574c-5.797,0-5.797-2.574-11.594-2.574c-4.324,0-7.158,3.665-9.844,3.665   c-0.915,0-1.812-0.425-2.745-1.563c-4.485-5.473,2.282-7.889,2.282-14.965s-2.574-7.076-2.574-14.152   c0-7.074,2.574-7.074,2.574-14.148c0-7.079-2.574-7.079-2.574-14.158c0-7.086,2.574-7.086,2.574-14.17s-6.766-9.497-2.284-14.982   c0.93-1.136,1.825-1.561,2.739-1.561c2.682,0,5.517,3.663,9.835,3.663c5.788,0,5.788-2.574,11.575-2.574   c5.788,0,5.788,2.574,11.576,2.574c5.793,0,5.793-2.574,11.585-2.574c5.797,0,5.797,2.574,11.594,2.574   c4.326,0,7.159-3.665,9.847-3.665c0.912,0,1.81,0.425,2.742,1.563c4.484,5.473-2.282,7.891-2.282,14.965   c0,7.076,2.574,7.076,2.574,14.155c0,7.071-2.574,7.071-2.574,14.146c0,7.079,2.574,7.079,2.574,14.16   c0,7.084-4.138,7.557-2.542,14.46C85.139,86.33,90.08,87.803,85.599,93.288z"/><path d="M24,83h52V17H24V83z M71,78H29v-6.975c0-0.99,13-12.016,42-12.016V78z M71,22v31.861c-24,0-36,6.493-42,10.518V22H71z"/><circle cx="56.284" cy="38.416" r="5.148"/></g><!--<text x="0" y="115" fill="#000000" font-size="5px" font-weight="bold" font-family="'Helvetica Neue', Helvetica, Arial-Unicode, Arial, Sans-serif">Created by Mikael Westman</text><text x="0" y="120" fill="#000000" font-size="5px" font-weight="bold" font-family="'Helvetica Neue', Helvetica, Arial-Unicode, Arial, Sans-serif">from the Noun Project</text>--></svg>